<svg width="123" height="122" viewBox="0 0 123 122" fill="none" xmlns="http://www.w3.org/2000/svg">
<g filter="url(#filter0_di_124_1322)">
<circle cx="61.1958" cy="57" r="57" fill="#C16804"/>
<circle cx="61.1958" cy="57" r="56" stroke="white" stroke-width="2"/>
</g>
<path d="M41.488 40.0214L47.0805 40.9191L45.9074 48.2279C45.1289 48.3535 44.3293 48.4263 43.5085 48.4462C42.6887 48.4596 41.7742 48.3854 40.765 48.2234C39.3636 47.9985 38.2188 47.5312 37.3305 46.8215C36.4421 46.1119 35.8307 45.1763 35.4962 44.0149C35.1617 42.8535 35.1209 41.4853 35.3737 39.9104C35.611 38.4319 36.0991 37.1981 36.8381 36.209C37.5836 35.2209 38.5502 34.5189 39.7379 34.1029C40.932 33.6879 42.3197 33.6074 43.9011 33.8612C44.6467 33.9809 45.3698 34.1793 46.0704 34.4566C46.771 34.7339 47.3964 35.0486 47.9465 35.4006L46.5695 37.6325C46.1739 37.3448 45.7116 37.0827 45.1825 36.8461C44.6534 36.6095 44.0867 36.4427 43.4825 36.3458C42.6147 36.2065 41.8274 36.2845 41.1206 36.5799C40.4202 36.8763 39.8355 37.3561 39.3664 38.0193C38.9048 38.6771 38.596 39.4913 38.4402 40.462C38.2927 41.3812 38.287 42.2177 38.4232 42.9714C38.5604 43.7188 38.8665 44.3383 39.3414 44.8299C39.8174 45.3151 40.4893 45.6274 41.3571 45.7667C41.7814 45.8348 42.1412 45.8727 42.4367 45.8806C42.7396 45.8831 43.0232 45.8824 43.2876 45.8787L43.7596 42.9378L41.0887 42.5091L41.488 40.0214ZM56.7231 39.3216C56.871 39.3453 57.0398 39.3823 57.2295 39.4325C57.4267 39.4774 57.5843 39.5225 57.7023 39.5678L57.0379 42.2899C56.9467 42.2422 56.8121 42.1976 56.6342 42.1558C56.4637 42.1087 56.3142 42.0748 56.1856 42.0541C55.8064 41.9933 55.429 41.9822 55.0535 42.0208C54.6845 42.0605 54.3411 42.1669 54.0231 42.34C53.7062 42.5068 53.4359 42.7535 53.212 43.0802C52.9956 43.4015 52.8466 43.8161 52.7651 44.3239L51.8845 49.8104L48.9436 49.3383L50.6739 38.5583L52.9012 38.9158L53.0442 40.7982L53.1888 40.8214C53.4597 40.4891 53.777 40.1971 54.1404 39.9456C54.5114 39.6886 54.9138 39.5026 55.3476 39.3876C55.7889 39.2673 56.2474 39.2452 56.7231 39.3216ZM64.0929 40.4847C65.5392 40.7169 66.5975 41.2098 67.2678 41.9636C67.938 42.7174 68.17 43.7371 67.9636 45.0227L66.8106 52.2061L64.7568 51.8765L64.4232 50.3196L64.346 50.3072C63.9756 50.6433 63.61 50.9078 63.2494 51.1004C62.8888 51.2931 62.4903 51.4138 62.0539 51.4624C61.6175 51.5111 61.1004 51.4874 60.5026 51.3915C59.8662 51.2893 59.3137 51.0753 58.8451 50.7496C58.3829 50.4248 58.0474 49.9885 57.8386 49.4407C57.6309 48.8865 57.5894 48.2204 57.7143 47.4426C57.8979 46.2984 58.4348 45.5208 59.325 45.1098C60.2162 44.6924 61.47 44.5837 63.0863 44.7838L64.9662 45.0262L65.042 44.5537C65.1328 43.9881 65.0515 43.5497 64.7981 43.2387C64.5447 42.9277 64.1545 42.7299 63.6274 42.6453C63.1067 42.5617 62.5838 42.5536 62.0587 42.621C61.5336 42.6883 61.0022 42.7943 60.4647 42.9388L59.8097 40.7962C60.4303 40.5859 61.1081 40.4507 61.843 40.3906C62.5844 40.3316 63.3343 40.363 64.0929 40.4847ZM64.6907 46.7425L63.5467 46.5985C62.5912 46.4715 61.9018 46.5356 61.4784 46.7907C61.0615 47.0469 60.8117 47.4321 60.7292 47.9463C60.6569 48.3963 60.7371 48.7389 60.9697 48.974C61.2034 49.2027 61.5323 49.3511 61.9566 49.4192C62.5865 49.5203 63.1468 49.419 63.6373 49.1153C64.1343 48.8127 64.4379 48.3174 64.5483 47.6296L64.6907 46.7425ZM74.7345 51.2724C75.0559 51.324 75.3729 51.3419 75.6853 51.3261C76.0042 51.3113 76.3224 51.28 76.64 51.2321L76.2887 53.4208C75.951 53.5117 75.5403 53.5645 75.0566 53.5791C74.5783 53.6013 74.0627 53.568 73.5099 53.4792C72.8671 53.3761 72.3051 53.1804 71.8239 52.8921C71.3501 52.5985 71.0066 52.1708 70.7935 51.6091C70.5878 51.042 70.5592 50.2956 70.7078 49.3699L71.542 44.1728L70.1342 43.9468L70.3339 42.703L72.1116 41.9795L73.3254 39.8401L75.2056 40.1419L74.8373 42.4368L77.8553 42.9212L77.5009 45.1292L74.4828 44.6448L73.6487 49.842C73.5826 50.2534 73.6488 50.5805 73.8472 50.8233C74.0531 51.0608 74.3488 51.2105 74.7345 51.2724ZM83.1006 43.7631L81.3704 54.5431L78.4295 54.0711L80.1598 43.2911L83.1006 43.7631ZM82.3129 39.3046C82.75 39.3747 83.1095 39.5379 83.3915 39.7942C83.6745 40.044 83.7716 40.4454 83.6829 40.9982C83.5952 41.5446 83.3768 41.8985 83.0278 42.0601C82.6798 42.2153 82.2873 42.2578 81.8501 42.1876C81.4066 42.1164 81.0438 41.9527 80.7619 41.6964C80.4874 41.4348 80.394 41.0307 80.4817 40.4844C80.5704 39.9315 80.785 39.5802 81.1256 39.4305C81.4736 39.2754 81.8693 39.2334 82.3129 39.3046ZM92.5002 53.0458C92.3826 53.7787 92.1095 54.3711 91.6809 54.8232C91.2597 55.2699 90.6873 55.5704 89.9636 55.7246C89.2409 55.8723 88.3718 55.8647 87.3561 55.7017C86.604 55.581 85.9658 55.4291 85.4413 55.246C84.9232 55.0639 84.409 54.8165 83.8988 54.5038L84.2888 52.074C84.8314 52.4315 85.4231 52.7506 86.0638 53.0315C86.7119 53.3069 87.2899 53.4854 87.7977 53.5669C88.3698 53.6588 88.7914 53.6407 89.0625 53.5128C89.341 53.3795 89.5025 53.1746 89.5469 52.8982C89.5758 52.7182 89.5501 52.5493 89.47 52.3913C89.3973 52.228 89.2115 52.03 88.9125 51.7974C88.6146 51.5584 88.139 51.2348 87.4858 50.8266C86.8563 50.4355 86.3462 50.0602 85.9555 49.7007C85.5712 49.3423 85.3045 48.9501 85.1553 48.5239C85.0136 48.0923 84.9917 47.5712 85.0897 46.9605C85.2497 45.9642 85.7556 45.2772 86.6074 44.8996C87.4667 44.5166 88.5456 44.4294 89.8441 44.6378C90.5126 44.7451 91.1382 44.9147 91.7208 45.1467C92.3098 45.3797 92.902 45.6957 93.4973 46.0945L92.2697 48.0734C91.7733 47.7564 91.2992 47.4858 90.8472 47.2616C90.4017 47.0384 89.9347 46.8876 89.4461 46.8092C89.0154 46.7401 88.6815 46.7458 88.4444 46.8264C88.2073 46.9071 88.0696 47.0663 88.0315 47.3041C88.0036 47.4777 88.0335 47.6407 88.1211 47.7933C88.2151 47.9468 88.4094 48.133 88.704 48.3517C89.0061 48.565 89.4514 48.8508 90.0401 49.209C90.6105 49.5578 91.0986 49.9064 91.5042 50.2551C91.9108 50.5973 92.2037 50.9905 92.383 51.4346C92.5633 51.8724 92.6024 52.4095 92.5002 53.0458ZM57.4482 65.6145L51.5986 79.1357L48.1949 78.5893L47.4744 70.8777C47.4585 70.7301 47.4416 70.5065 47.4238 70.2069C47.4059 69.9073 47.389 69.5815 47.373 69.2295C47.358 68.871 47.3458 68.5361 47.3364 68.2247C47.3345 67.9078 47.3384 67.6579 47.348 67.4748C47.2998 67.6517 47.2226 67.8866 47.1162 68.1794C47.0163 68.4733 46.9036 68.7849 46.7782 69.1142C46.6593 69.4446 46.5439 69.7525 46.4322 70.0379C46.3204 70.3232 46.2329 70.54 46.1696 70.688L43.0846 77.7691L39.6905 77.2243L38.3566 62.5501L41.2975 63.0222L41.8656 71.0061C41.8798 71.2457 41.8933 71.5314 41.906 71.8631C41.9251 72.1959 41.9385 72.5442 41.946 72.9081C41.961 73.2665 41.9679 73.6138 41.9667 73.9499C41.973 74.2806 41.9699 74.5669 41.9574 74.8089C42.0288 74.5698 42.1159 74.2937 42.219 73.9805C42.323 73.6609 42.4308 73.3387 42.5423 73.0137C42.6612 72.6833 42.7761 72.3786 42.8868 72.0997C42.9975 71.8207 43.093 71.5954 43.1733 71.4237L46.4947 63.8564L49.3198 64.3098L50.1061 72.5364C50.1232 72.7172 50.137 72.9601 50.1474 73.2651C50.1652 73.5647 50.179 73.89 50.1886 74.241C50.1981 74.592 50.2023 74.9355 50.2012 75.2716C50.2074 75.6023 50.2043 75.8886 50.1919 76.1306C50.2884 75.8164 50.4119 75.4373 50.5623 74.9933C50.7202 74.5439 50.8807 74.0982 51.044 73.6563C51.2137 73.2153 51.3586 72.8463 51.4788 72.5491L54.5073 65.1425L57.4482 65.6145ZM61.3994 69.6511L59.6692 80.4311L56.7283 79.959L58.4586 69.179L61.3994 69.6511ZM60.6117 65.1925C61.0488 65.2627 61.4083 65.4259 61.6903 65.6822C61.9733 65.932 62.0704 66.3333 61.9817 66.8861C61.894 67.4325 61.6756 67.7865 61.3266 67.9481C60.9786 68.1032 60.5861 68.1457 60.1489 68.0756C59.7054 68.0044 59.3426 67.8406 59.0607 67.5844C58.7862 67.3227 58.6928 66.9187 58.7805 66.3723C58.8692 65.8195 59.0839 65.4682 59.4244 65.3185C59.7724 65.1633 60.1682 65.1213 60.6117 65.1925ZM70.0991 73.3124L67.5535 72.9038L66.1776 81.4757L63.2368 81.0037L64.6126 72.4318L62.9927 72.1718L63.2203 70.7544L64.9671 70.2237L65.094 69.433C65.2415 68.5138 65.5103 67.8251 65.9004 67.3668C66.2979 66.9031 66.796 66.6138 67.3947 66.4989C68.0008 66.3786 68.6928 66.3808 69.4706 66.5057C70.0427 66.5975 70.5557 66.7293 71.0094 66.901C71.4643 67.0663 71.8302 67.2306 72.1073 67.3937L71.0086 69.4329C70.7949 69.3261 70.561 69.2226 70.3067 69.1224C70.0525 69.0223 69.755 68.9448 69.4143 68.8902C69.0029 68.8241 68.6806 68.901 68.4476 69.1207C68.2219 69.3351 68.0782 69.6351 68.0163 70.0208L67.9079 70.6957L70.4535 71.1043L70.0991 73.3124ZM75.0817 71.8472L73.3515 82.6272L70.4106 82.1551L72.1409 71.3752L75.0817 71.8472ZM74.294 67.3887C74.7311 67.4588 75.0906 67.622 75.3726 67.8783C75.6556 68.1281 75.7527 68.5294 75.664 69.0823C75.5763 69.6287 75.3579 69.9826 75.0089 70.1442C74.6609 70.2993 74.2684 70.3418 73.8312 70.2717C73.3877 70.2005 73.0249 70.0368 72.743 69.7805C72.4685 69.5189 72.3751 69.1148 72.4628 68.5684C72.5515 68.0156 72.7661 67.6643 73.1067 67.5146C73.4547 67.3594 73.8504 67.3175 74.294 67.3887ZM79.656 78.8422L77.3033 78.4645L78.3236 68.9652L81.6598 69.5006L79.656 78.8422ZM76.2437 81.677C76.3406 81.0728 76.5727 80.6749 76.9397 80.4832C77.3132 80.2926 77.7345 80.2349 78.2038 80.3103C78.6602 80.3835 79.0327 80.5686 79.3213 80.8655C79.6164 81.1634 79.7154 81.6145 79.6184 82.2187C79.5256 82.7973 79.2914 83.1883 78.9158 83.3917C78.5467 83.5962 78.134 83.6619 77.6776 83.5886C77.2083 83.5133 76.8272 83.3202 76.5342 83.0095C76.2477 82.6997 76.1508 82.2556 76.2437 81.677Z" fill="#F5EDE0"/>
<defs>
<filter id="filter0_di_124_1322" x="0.195801" y="0" width="122" height="122" filterUnits="userSpaceOnUse" color-interpolation-filters="sRGB">
<feFlood flood-opacity="0" result="BackgroundImageFix"/>
<feColorMatrix in="SourceAlpha" type="matrix" values="0 0 0 0 0 0 0 0 0 0 0 0 0 0 0 0 0 0 127 0" result="hardAlpha"/>
<feOffset dy="4"/>
<feGaussianBlur stdDeviation="2"/>
<feComposite in2="hardAlpha" operator="out"/>
<feColorMatrix type="matrix" values="0 0 0 0 0 0 0 0 0 0 0 0 0 0 0 0 0 0 0.25 0"/>
<feBlend mode="normal" in2="BackgroundImageFix" result="effect1_dropShadow_124_1322"/>
<feBlend mode="normal" in="SourceGraphic" in2="effect1_dropShadow_124_1322" result="shape"/>
<feColorMatrix in="SourceAlpha" type="matrix" values="0 0 0 0 0 0 0 0 0 0 0 0 0 0 0 0 0 0 127 0" result="hardAlpha"/>
<feOffset/>
<feGaussianBlur stdDeviation="2"/>
<feComposite in2="hardAlpha" operator="arithmetic" k2="-1" k3="1"/>
<feColorMatrix type="matrix" values="0 0 0 0 0 0 0 0 0 0 0 0 0 0 0 0 0 0 0.25 0"/>
<feBlend mode="normal" in2="shape" result="effect2_innerShadow_124_1322"/>
</filter>
</defs>
</svg>
