<svg width="110" height="109" viewBox="0 0 110 109" fill="none" xmlns="http://www.w3.org/2000/svg">
<g filter="url(#filter0_di_69_1413)">
<circle cx="54.6741" cy="50.5" r="50.5" fill="#C16804"/>
<circle cx="54.6741" cy="50.5" r="49.5" stroke="white" stroke-width="2"/>
</g>
<path d="M37.0671 21.4348L42.6596 22.3324L41.4865 29.6412C40.708 29.7668 39.9084 29.8396 39.0876 29.8595C38.2678 29.873 37.3533 29.7987 36.3441 29.6367C34.9428 29.4118 33.7979 28.9445 32.9096 28.2349C32.0212 27.5252 31.4098 26.5897 31.0753 25.4282C30.7408 24.2668 30.7 22.8986 30.9528 21.3237C31.1901 19.8453 31.6782 18.6115 32.4172 17.6223C33.1627 16.6342 34.1293 15.9322 35.317 15.5162C36.5111 15.1013 37.8988 15.0207 39.4802 15.2745C40.2258 15.3942 40.9489 15.5927 41.6495 15.87C42.3501 16.1473 42.9755 16.4619 43.5256 16.814L42.1486 19.0458C41.753 18.7582 41.2907 18.496 40.7616 18.2594C40.2325 18.0229 39.6658 17.8561 39.0616 17.7591C38.1938 17.6198 37.4065 17.6978 36.6997 17.9932C35.9993 18.2896 35.4146 18.7694 34.9455 19.4326C34.4839 20.0904 34.1751 20.9047 34.0193 21.8753C33.8718 22.7945 33.8661 23.631 34.0023 24.3848C34.1395 25.1321 34.4456 25.7516 34.9205 26.2432C35.3965 26.7285 36.0684 27.0407 36.9362 27.18C37.3605 27.2481 37.7203 27.2861 38.0158 27.2939C38.3187 27.2964 38.6023 27.2958 38.8667 27.292L39.3387 24.3512L36.6678 23.9225L37.0671 21.4348ZM52.3022 20.7349C52.4501 20.7587 52.6189 20.7956 52.8086 20.8459C53.0058 20.8907 53.1634 20.9358 53.2814 20.9811L52.617 23.7032C52.5258 23.6556 52.3912 23.6109 52.2133 23.5691C52.0428 23.522 51.8933 23.4881 51.7647 23.4675C51.3855 23.4066 51.0081 23.3955 50.6326 23.4341C50.2636 23.4738 49.9202 23.5802 49.6022 23.7534C49.2853 23.9201 49.015 24.1668 48.7911 24.4936C48.5747 24.8149 48.4257 25.2295 48.3442 25.7373L47.4636 31.2237L44.5227 30.7517L46.253 19.9717L48.4803 20.3292L48.6233 22.2116L48.7679 22.2348C49.0388 21.9024 49.3561 21.6105 49.7195 21.3589C50.0905 21.1019 50.4929 20.916 50.9267 20.801C51.368 20.6806 51.8265 20.6586 52.3022 20.7349ZM59.672 21.898C61.1183 22.1302 62.1766 22.6232 62.8469 23.3769C63.5171 24.1307 63.7491 25.1504 63.5427 26.436L62.3897 33.6195L60.3359 33.2898L60.0023 31.7329L59.9251 31.7205C59.5547 32.0567 59.1892 32.3211 58.8285 32.5138C58.4679 32.7065 58.0694 32.8271 57.633 32.8758C57.1966 32.9244 56.6795 32.9007 56.0817 32.8048C55.4453 32.7026 54.8928 32.4887 54.4242 32.1629C53.962 31.8382 53.6265 31.4019 53.4177 30.854C53.21 30.2998 53.1685 29.6338 53.2934 28.856C53.477 27.7117 54.0139 26.9341 54.9041 26.5232C55.7953 26.1057 57.0491 25.9971 58.6654 26.1972L60.5453 26.4395L60.6211 25.9671C60.7119 25.4014 60.6306 24.9631 60.3772 24.652C60.1238 24.341 59.7336 24.1432 59.2065 24.0586C58.6858 23.975 58.1629 23.9669 57.6378 24.0343C57.1127 24.1017 56.5813 24.2076 56.0438 24.3521L55.3888 22.2095C56.0094 21.9992 56.6872 21.864 57.4221 21.804C58.1635 21.7449 58.9134 21.7763 59.672 21.898ZM60.2698 28.1559L59.1258 28.0118C58.1704 27.8848 57.4809 27.9489 57.0575 28.204C56.6406 28.4602 56.3908 28.8454 56.3083 29.3597C56.236 29.8096 56.3162 30.1522 56.5488 30.3873C56.7825 30.616 57.1114 30.7645 57.5357 30.8326C58.1656 30.9337 58.7259 30.8324 59.2164 30.5287C59.7134 30.226 60.017 29.7308 60.1274 29.0429L60.2698 28.1559ZM70.3136 32.6857C70.635 32.7373 70.952 32.7552 71.2644 32.7394C71.5833 32.7247 71.9015 32.6933 72.2191 32.6454L71.8678 34.8342C71.5301 34.925 71.1194 34.9778 70.6357 34.9925C70.1574 35.0146 69.6418 34.9813 69.089 34.8926C68.4462 34.7894 67.8842 34.5937 67.403 34.3054C66.9292 34.0118 66.5857 33.5841 66.3726 33.0224C66.1669 32.4553 66.1383 31.7089 66.2869 30.7833L67.1211 25.5861L65.7133 25.3602L65.913 24.1163L67.6907 23.3928L68.9045 21.2535L70.7847 21.5552L70.4164 23.8501L73.4344 24.3345L73.08 26.5426L70.0619 26.0582L69.2278 31.2553C69.1617 31.6667 69.2279 31.9938 69.4263 32.2367C69.6322 32.4741 69.9279 32.6238 70.3136 32.6857ZM78.6797 25.1764L76.9495 35.9564L74.0086 35.4844L75.7389 24.7044L78.6797 25.1764ZM77.892 20.7179C78.3291 20.7881 78.6886 20.9513 78.9706 21.2075C79.2536 21.4574 79.3507 21.8587 79.262 22.4115C79.1743 22.9579 78.9559 23.3119 78.6069 23.4734C78.2589 23.6286 77.8664 23.6711 77.4292 23.6009C76.9857 23.5297 76.6229 23.366 76.341 23.1097C76.0665 22.8481 75.9731 22.4441 76.0608 21.8977C76.1495 21.3449 76.3641 20.9936 76.7047 20.8438C77.0527 20.6887 77.4484 20.6467 77.892 20.7179ZM88.0793 34.4592C87.9617 35.192 87.6886 35.7844 87.26 36.2366C86.8388 36.6833 86.2664 36.9837 85.5427 37.1379C84.82 37.2857 83.9509 37.278 82.9352 37.115C82.1831 36.9943 81.5449 36.8424 81.0204 36.6593C80.5023 36.4772 79.9881 36.2299 79.4779 35.9172L79.8679 33.4873C80.4105 33.8448 81.0022 34.1639 81.6429 34.4448C82.291 34.7203 82.869 34.8988 83.3768 34.9803C83.9489 35.0721 84.3705 35.054 84.6416 34.9261C84.9201 34.7928 85.0816 34.5879 85.126 34.3115C85.1549 34.1315 85.1292 33.9626 85.0491 33.8047C84.9764 33.6413 84.7906 33.4434 84.4916 33.2108C84.1937 32.9717 83.7181 32.6481 83.0649 32.24C82.4354 31.8488 81.9253 31.4735 81.5346 31.1141C81.1503 30.7557 80.8836 30.3634 80.7344 29.9372C80.5927 29.5057 80.5708 28.9845 80.6688 28.3739C80.8288 27.3775 81.3347 26.6905 82.1865 26.313C83.0458 25.93 84.1247 25.8427 85.4232 26.0511C86.0917 26.1584 86.7173 26.3281 87.2999 26.56C87.8889 26.793 88.4811 27.109 89.0764 27.5079L87.8488 29.4868C87.3524 29.1697 86.8783 28.8991 86.4263 28.6749C85.9808 28.4517 85.5138 28.3009 85.0252 28.2225C84.5945 28.1534 84.2606 28.1591 84.0235 28.2398C83.7864 28.3204 83.6487 28.4796 83.6106 28.7175C83.5827 28.891 83.6126 29.0541 83.7002 29.2066C83.7942 29.3602 83.9885 29.5463 84.2831 29.765C84.5852 29.9783 85.0305 30.2641 85.6192 30.6224C86.1896 30.9711 86.6777 31.3198 87.0833 31.6684C87.4899 32.0106 87.7828 32.4038 87.9621 32.848C88.1424 33.2857 88.1815 33.8228 88.0793 34.4592ZM35.219 43.2397L34.1418 49.9507C34.0768 50.3557 33.9957 50.7581 33.8986 51.1579C33.8015 51.5577 33.7011 51.957 33.5975 52.3558L33.6361 52.362C33.8808 52.1111 34.1281 51.864 34.3782 51.6206C34.6347 51.3782 34.9025 51.1476 35.1816 50.9286L38.7258 48.1347L42.0428 48.6671L37.011 52.6564L40.5728 59.4889L37.1788 58.9441L34.7751 54.0778L33.3494 54.8875L32.8108 58.243L29.87 57.771L32.2781 42.7677L35.219 43.2397ZM48.2976 49.4435C49.7439 49.6757 50.8022 50.1687 51.4725 50.9224C52.1427 51.6762 52.3747 52.6959 52.1683 53.9815L51.0153 61.165L48.9615 60.8353L48.6279 59.2784L48.5508 59.266C48.1803 59.6022 47.8148 59.8666 47.4541 60.0593C47.0935 60.252 46.695 60.3726 46.2586 60.4213C45.8222 60.4699 45.3051 60.4462 44.7073 60.3503C44.0709 60.2481 43.5184 60.0342 43.0498 59.7084C42.5876 59.3837 42.2521 58.9474 42.0433 58.3995C41.8356 57.8453 41.7941 57.1793 41.919 56.4015C42.1026 55.2572 42.6395 54.4796 43.5297 54.0687C44.4209 53.6512 45.6747 53.5426 47.291 53.7427L49.1709 53.985L49.2467 53.5126C49.3375 52.9469 49.2562 52.5086 49.0028 52.1975C48.7495 51.8865 48.3592 51.6887 47.8321 51.6041C47.3114 51.5205 46.7885 51.5124 46.2634 51.5798C45.7383 51.6472 45.2069 51.7531 44.6694 51.8976L44.0144 49.755C44.635 49.5447 45.3128 49.4095 46.0477 49.3495C46.7891 49.2904 47.5391 49.3218 48.2976 49.4435ZM48.8954 55.7014L47.7515 55.5573C46.796 55.4303 46.1065 55.4944 45.6831 55.7495C45.2662 56.0057 45.0164 56.3909 44.9339 56.9052C44.8617 57.3551 44.9418 57.6977 45.1744 57.9328C45.4081 58.1615 45.737 58.31 46.1613 58.3781C46.7912 58.4792 47.3515 58.3779 47.842 58.0742C48.339 57.7715 48.6426 57.2763 48.753 56.5884L48.8954 55.7014ZM61.3874 54.037L58.8418 53.6284L57.466 62.2003L54.5251 61.7283L55.901 53.1564L54.2811 52.8964L54.5086 51.479L56.2554 50.9483L56.3823 50.1577C56.5298 49.2384 56.7986 48.5497 57.1887 48.0914C57.5862 47.6277 58.0843 47.3384 58.683 47.2235C59.2892 47.1032 59.9811 47.1055 60.7589 47.2303C61.331 47.3221 61.844 47.4539 62.2978 47.6256C62.7526 47.791 63.1185 47.9552 63.3957 48.1184L62.2969 50.1575C62.0833 50.0507 61.8493 49.9472 61.595 49.847C61.3408 49.7469 61.0433 49.6695 60.7026 49.6148C60.2912 49.5487 59.969 49.6256 59.7359 49.8453C59.5103 50.0597 59.3665 50.3597 59.3046 50.7454L59.1962 51.4204L61.7418 51.8289L61.3874 54.037ZM69.0336 55.2643L66.4881 54.8557L65.1122 63.4276L62.1714 62.9556L63.5472 54.3837L61.9273 54.1237L62.1548 52.7063L63.9016 52.1756L64.0286 51.385C64.1761 50.4657 64.4449 49.777 64.835 49.3187C65.2325 48.855 65.7306 48.5657 66.3293 48.4508C66.9354 48.3305 67.6274 48.3327 68.4052 48.4576C68.9773 48.5494 69.4903 48.6812 69.944 48.8529C70.3988 49.0183 70.7648 49.1825 71.0419 49.3457L69.9432 51.3848C69.7295 51.278 69.4956 51.1745 69.2413 51.0743C68.987 50.9742 68.6896 50.8968 68.3489 50.8421C67.9375 50.776 67.6152 50.8529 67.3821 51.0726C67.1565 51.287 67.0128 51.587 66.9509 51.9727L66.8425 52.6476L69.3881 53.0562L69.0336 55.2643ZM75.553 53.8381C76.5494 53.998 77.3766 54.3286 78.0346 54.8298C78.6937 55.3246 79.161 55.9667 79.4365 56.756C79.712 57.5453 79.7657 58.4639 79.5975 59.5117L79.3685 60.9387L72.4165 59.8229C72.3155 60.6572 72.4583 61.3494 72.8447 61.8994C73.2387 62.444 73.8503 62.7828 74.6795 62.9159C75.3673 63.0263 76.0086 63.0567 76.6034 63.0071C77.1982 62.9575 77.8204 62.8398 78.4701 62.6539L78.1048 64.9295C77.529 65.1074 76.9388 65.2105 76.3342 65.2388C75.7361 65.268 75.0224 65.2161 74.1932 65.083C73.1132 64.9097 72.1874 64.5567 71.4157 64.024C70.6505 63.4924 70.0955 62.7802 69.7509 61.8874C69.4127 60.9958 69.3431 59.9296 69.5423 58.689C69.7445 57.429 70.1248 56.4153 70.6832 55.6477C71.249 54.8748 71.948 54.3408 72.78 54.0457C73.613 53.7443 74.5374 53.675 75.553 53.8381ZM75.2364 55.9335C74.6643 55.8417 74.1593 55.9485 73.7212 56.2541C73.2895 56.5606 72.9819 57.1014 72.7981 57.8763L76.925 58.5387C76.9887 58.1006 76.9708 57.6988 76.8712 57.3333C76.778 56.9689 76.5964 56.6628 76.3263 56.415C76.0625 56.1683 75.6993 56.0078 75.2364 55.9335Z" fill="#F5EDE0"/>
<path d="M19.9594 77.0352L18.595 70.3032L19.6242 70.4722L20.3879 74.5345C20.4413 74.8124 20.4921 75.1177 20.5404 75.4502C20.5887 75.7828 20.6163 76.0486 20.6231 76.2476L20.6636 76.2543C20.7415 76.0691 20.8604 75.8274 21.0203 75.5291C21.1807 75.2268 21.3265 74.9539 21.4576 74.7102L23.4807 71.1057L24.5099 71.2747L21.0579 77.2157L19.9594 77.0352ZM27.9865 71.7271C28.5261 71.8157 28.969 72.0112 29.3152 72.3135C29.6614 72.6158 29.9012 72.9996 30.0346 73.4648C30.1686 73.9262 30.1884 74.4441 30.0941 75.0185L29.9963 75.614L25.6194 74.895C25.5088 75.6409 25.6007 76.2379 25.8952 76.6861C26.1898 77.1343 26.6627 77.4119 27.3142 77.5189C27.715 77.5847 28.0757 77.6064 28.3961 77.5838C28.7165 77.5612 29.0541 77.5058 29.4091 77.4177L29.2704 78.2618C28.927 78.3519 28.5919 78.4037 28.2651 78.4173C27.9421 78.4316 27.5667 78.4036 27.1388 78.3333C26.5298 78.2332 26.0181 78.0225 25.6038 77.7011C25.194 77.3765 24.9034 76.9527 24.732 76.4297C24.5605 75.9067 24.5321 75.2964 24.6467 74.5987C24.7588 73.9164 24.9694 73.3454 25.2785 72.8855C25.5921 72.4224 25.9792 72.0901 26.4398 71.8887C26.9043 71.6878 27.4198 71.634 27.9865 71.7271ZM27.8457 72.5115C27.3331 72.4273 26.8969 72.5278 26.5373 72.8132C26.1777 73.0985 25.9196 73.5371 25.7631 74.1289L29.1165 74.6797C29.1747 74.3014 29.1694 73.9601 29.1007 73.6558C29.0364 73.3484 28.9016 73.0966 28.6962 72.9006C28.4916 72.7007 28.2081 72.571 27.8457 72.5115ZM33.3717 79.3571C32.57 79.2254 31.9789 78.8472 31.5985 78.2226C31.222 77.5987 31.1224 76.7471 31.2997 75.6678C31.4789 74.5769 31.8531 73.7932 32.4222 73.3167C32.992 72.8363 33.6739 72.6613 34.468 72.7917C34.8033 72.8468 35.089 72.9392 35.325 73.069C35.5609 73.1989 35.7572 73.3538 35.9136 73.5339C36.0708 73.7101 36.1955 73.9028 36.2878 74.112L36.3572 74.1233C36.3614 74.0013 36.3729 73.835 36.3916 73.6243C36.4104 73.4136 36.4306 73.2427 36.4521 73.1117L36.869 70.5734L37.8288 70.7311L36.351 79.7277L35.5763 79.6004L35.5799 78.6747L35.5394 78.6681C35.3889 78.8373 35.2084 78.9838 34.9981 79.1076C34.7916 79.2321 34.5536 79.3196 34.284 79.3704C34.0189 79.4179 33.7148 79.4134 33.3717 79.3571ZM33.6531 78.5839C34.3315 78.6953 34.8431 78.5814 35.1878 78.2422C35.5325 77.9029 35.7672 77.3536 35.8919 76.5943L35.9204 76.4208C36.0527 75.6152 36.0194 74.9744 35.8205 74.4984C35.6255 74.023 35.1753 73.7273 34.4699 73.6115C33.8801 73.5146 33.4014 73.6695 33.0338 74.0762C32.6667 74.4791 32.4189 75.0718 32.2904 75.8543C32.1625 76.6329 32.2083 77.2579 32.4277 77.7294C32.651 78.2016 33.0595 78.4864 33.6531 78.5839ZM43.8998 71.7283L43.5304 73.9775C43.4879 74.2357 43.4391 74.485 43.3838 74.7253C43.3323 74.9663 43.2917 75.1535 43.2618 75.2872L43.3138 75.2957C43.5341 75.039 43.8243 74.8392 44.1842 74.6965C44.5441 74.5537 44.9785 74.5241 45.4873 74.6077C46.2813 74.7381 46.8682 75.1176 47.2479 75.746C47.6321 76.3712 47.7353 77.2254 47.5574 78.3086C47.4402 79.0217 47.2335 79.6053 46.9373 80.0593C46.641 80.5134 46.2757 80.8334 45.8414 81.0194C45.4071 81.2054 44.922 81.2543 44.3862 81.1663C43.8851 81.084 43.4879 80.9238 43.1945 80.6856C42.9056 80.4441 42.6965 80.1743 42.5674 79.8759L42.4922 79.8636L42.1561 80.6812L41.4622 80.5673L42.94 71.5707L43.8998 71.7283ZM45.1992 75.3857C44.7405 75.3104 44.3613 75.3411 44.0618 75.478C43.7628 75.611 43.5238 75.8488 43.3448 76.1915C43.1703 76.531 43.0378 76.9763 42.9472 77.5275L42.9387 77.5796C42.8076 78.3775 42.8402 79.0103 43.0366 79.478C43.2335 79.9418 43.6828 80.2314 44.3843 80.3466C44.974 80.4435 45.4509 80.3001 45.8147 79.9165C46.1824 79.5335 46.4321 78.9412 46.5638 78.1394C46.6981 77.3223 46.6526 76.6834 46.4274 76.2228C46.206 75.7629 45.7966 75.4839 45.1992 75.3857ZM54.699 79.4757C54.6135 79.9961 54.4697 80.4495 54.2677 80.8359C54.0657 81.2223 53.8144 81.5353 53.5137 81.7749C53.2131 82.0145 52.8693 82.1797 52.4823 82.2706C52.0997 82.3581 51.681 82.3646 51.2262 82.2899C50.8022 82.2202 50.4249 82.083 50.0943 81.8783C49.7683 81.6704 49.4992 81.4045 49.2872 81.0807C49.079 80.7575 48.9371 80.3799 48.8616 79.9479C48.79 79.5165 48.7969 79.0406 48.8824 78.5203C48.9963 77.8264 49.2108 77.256 49.5257 76.8089C49.8412 76.358 50.2377 76.0412 50.715 75.8583C51.1969 75.6722 51.7404 75.6289 52.3456 75.7283C52.9238 75.8233 53.4075 76.0353 53.7968 76.3645C54.1899 76.6943 54.4658 77.1236 54.6244 77.6524C54.7874 78.178 54.8123 78.7857 54.699 79.4757ZM49.8769 78.6836C49.7933 79.1924 49.7882 79.6449 49.8617 80.0409C49.9352 80.437 50.0959 80.7603 50.3437 81.0108C50.5916 81.2613 50.9371 81.423 51.3804 81.4958C51.8198 81.5679 52.197 81.525 52.5119 81.3669C52.8307 81.2095 53.0883 80.9549 53.2846 80.6032C53.4809 80.2514 53.6209 79.8212 53.7045 79.3124C53.7874 78.8074 53.7915 78.3607 53.7167 77.9724C53.6426 77.5802 53.4813 77.2608 53.2329 77.0141C52.9844 76.7675 52.6366 76.6074 52.1895 76.534C51.5303 76.4257 51.0108 76.564 50.6309 76.9489C50.2548 77.3345 50.0035 77.9127 49.8769 78.6836ZM57.138 86.0636C56.3054 85.9269 55.6893 85.6653 55.2896 85.279C54.8892 84.8966 54.735 84.4259 54.8268 83.867C54.892 83.47 55.073 83.1513 55.3697 82.9111C55.6704 82.6715 56.0518 82.5422 56.5142 82.5231C56.3611 82.4188 56.2375 82.2797 56.1433 82.1059C56.053 81.9327 56.0243 81.7459 56.0572 81.5455C56.0952 81.3142 56.192 81.1223 56.3477 80.9697C56.5079 80.814 56.7343 80.677 57.0269 80.5588C56.7175 80.3694 56.4851 80.0977 56.3295 79.7435C56.1783 79.3862 56.1379 78.9936 56.2082 78.5657C56.2829 78.1109 56.441 77.739 56.6824 77.4501C56.9245 77.1573 57.2387 76.9556 57.625 76.8449C58.0114 76.7342 58.4589 76.7206 58.9677 76.8042C59.0795 76.8225 59.1903 76.8467 59.3002 76.8766C59.4146 76.9033 59.5222 76.9348 59.6232 76.9712C59.7247 77.0037 59.8121 77.0379 59.8854 77.0737L62.0594 77.4308L61.9578 78.0494L60.7661 78.0021C60.857 78.1715 60.9236 78.3684 60.9659 78.5931C61.0082 78.8178 61.0081 79.0592 60.9657 79.3175C60.8618 79.9497 60.5653 80.4175 60.076 80.7212C59.5874 81.0209 58.9691 81.1094 58.2214 80.9865C58.044 80.9574 57.8654 80.9122 57.6855 80.851C57.4795 80.9241 57.3159 81.016 57.1948 81.1267C57.0776 81.2381 57.0053 81.3766 56.9781 81.5424C56.9578 81.6657 56.9783 81.77 57.0395 81.8553C57.1046 81.9412 57.2056 82.0132 57.3425 82.0713C57.4801 82.1256 57.649 82.1692 57.8495 82.2021L58.9654 82.3854C59.6554 82.4987 60.1597 82.73 60.4784 83.0793C60.801 83.4292 60.9166 83.8816 60.8255 84.4367C60.7102 85.1382 60.3367 85.6291 59.7048 85.9093C59.0729 86.1895 58.2173 86.2409 57.138 86.0636ZM57.2904 85.3167C57.8146 85.4028 58.2571 85.4201 58.6179 85.3685C58.9819 85.3214 59.2652 85.2116 59.4677 85.039C59.6734 84.8709 59.7988 84.65 59.8437 84.3764C59.8855 84.122 59.8594 83.9197 59.7653 83.7697C59.6705 83.6235 59.5148 83.5108 59.2982 83.4317C59.0823 83.3487 58.8124 83.2807 58.4886 83.2275L57.3901 83.047C57.1048 83.0002 56.8489 83.0037 56.6223 83.0575C56.3958 83.1113 56.2104 83.2155 56.0663 83.3699C55.926 83.525 55.8347 83.7317 55.7923 83.99C55.7359 84.333 55.8377 84.6169 56.0977 84.8417C56.357 85.0704 56.7546 85.2287 57.2904 85.3167ZM58.371 80.2926C58.8297 80.368 59.1936 80.309 59.4629 80.1157C59.7322 79.9224 59.9032 79.6042 59.976 79.1609C60.0539 78.6868 59.9946 78.3128 59.7981 78.0391C59.6022 77.7615 59.2749 77.585 58.8162 77.5096C58.3768 77.4375 58.0173 77.5051 57.7378 77.7125C57.4628 77.9167 57.2867 78.254 57.2094 78.7242C57.1385 79.156 57.2036 79.5071 57.4046 79.7776C57.6055 80.0481 57.9277 80.2198 58.371 80.2926ZM64.6973 75.1445L63.9299 79.8163C63.9046 79.9705 63.8678 80.1584 63.8195 80.3801C63.7718 80.5979 63.7302 80.7909 63.6946 80.9593L63.7351 80.9659C63.8325 80.879 63.9745 80.7499 64.1609 80.5787C64.3513 80.408 64.5102 80.2718 64.6378 80.1701L67.1109 78.2724L68.2383 78.4576L65.244 80.7447L67.3824 84.8249L66.2261 84.635L64.4814 81.2666L63.5965 81.8457L63.2195 84.1411L62.2655 83.9844L63.7433 74.9878L64.6973 75.1445ZM74.473 82.7238C74.3591 83.4176 74.1421 83.9916 73.822 84.4457C73.5065 84.8967 73.1075 85.2171 72.625 85.407C72.147 85.5937 71.6054 85.6374 71.0003 85.538C70.6958 85.4879 70.4185 85.4048 70.1684 85.2885C69.9215 85.1767 69.6999 85.0314 69.5037 84.8527L68.8799 85.4688L68.3209 84.9316L69.0071 84.2605C68.8195 83.9328 68.6924 83.5616 68.626 83.1469C68.564 82.729 68.5741 82.2695 68.6564 81.7684C68.8274 80.7276 69.2199 79.9648 69.834 79.4797C70.4519 78.9954 71.2138 78.8276 72.1196 78.9764C72.4203 79.0258 72.6973 79.1109 72.9506 79.2316C73.2039 79.3524 73.4264 79.5038 73.6182 79.6857L74.2227 79.0784L74.801 79.6068L74.1147 80.2779C74.2998 80.5973 74.4259 80.9624 74.493 81.3732C74.5601 81.7841 74.5534 82.2343 74.473 82.7238ZM69.6509 81.9317C69.599 82.2478 69.5743 82.5426 69.5769 82.8162C69.584 83.0865 69.625 83.3308 69.7 83.5489L73.0138 80.293C72.8882 80.1655 72.7377 80.0577 72.5622 79.9694C72.3867 79.8812 72.1871 79.8188 71.9635 79.782C71.3044 79.6738 70.7849 79.8121 70.405 80.197C70.0289 80.5826 69.7776 81.1608 69.6509 81.9317ZM73.4785 82.5604C73.5286 82.2559 73.5497 81.9704 73.542 81.7039C73.5344 81.4375 73.4965 81.1977 73.4286 80.9846L70.1139 84.2464C70.2317 84.3726 70.3787 84.4779 70.5549 84.5622C70.7349 84.6472 70.9347 84.7078 71.1545 84.7439C71.5939 84.816 71.9711 84.7731 72.286 84.615C72.6048 84.4576 72.8624 84.203 73.0587 83.8513C73.255 83.4995 73.395 83.0693 73.4785 82.5604ZM78.0477 77.3374L77.6782 79.5866C77.6358 79.8449 77.5869 80.0941 77.5316 80.3344C77.4802 80.5754 77.4395 80.7627 77.4096 80.8963L77.4617 80.9049C77.682 80.6481 77.9721 80.4484 78.332 80.3056C78.692 80.1628 79.1263 80.1332 79.6351 80.2168C80.4292 80.3472 81.0161 80.7267 81.3958 81.3551C81.78 81.9804 81.8831 82.8346 81.7052 83.9177C81.5881 84.6308 81.3814 85.2144 81.0851 85.6685C80.7889 86.1225 80.4236 86.4426 79.9892 86.6285C79.5549 86.8145 79.0699 86.8635 78.5341 86.7755C78.033 86.6932 77.6357 86.5329 77.3423 86.2947C77.0534 86.0533 76.8444 85.7834 76.7153 85.4851L76.6401 85.4727L76.3039 86.2904L75.6101 86.1764L77.0879 77.1798L78.0477 77.3374ZM79.347 80.9949C78.8883 80.9195 78.5092 80.9503 78.2096 81.0871C77.9107 81.2201 77.6717 81.4579 77.4927 81.8006C77.3182 82.1401 77.1856 82.5855 77.0951 83.1367L77.0865 83.1887C76.9555 83.9866 76.9881 84.6194 77.1844 85.0871C77.3814 85.551 77.8306 85.8405 78.5322 85.9557C79.1219 86.0526 79.5987 85.9092 79.9626 85.5256C80.3303 85.1427 80.58 84.5503 80.7117 83.7486C80.8459 82.9314 80.8004 82.2925 80.5752 81.832C80.3539 81.372 79.9445 81.093 79.347 80.9949Z" fill="#F5EDE0"/>
<defs>
<filter id="filter0_di_69_1413" x="0.174072" y="0" width="109" height="109" filterUnits="userSpaceOnUse" color-interpolation-filters="sRGB">
<feFlood flood-opacity="0" result="BackgroundImageFix"/>
<feColorMatrix in="SourceAlpha" type="matrix" values="0 0 0 0 0 0 0 0 0 0 0 0 0 0 0 0 0 0 127 0" result="hardAlpha"/>
<feOffset dy="4"/>
<feGaussianBlur stdDeviation="2"/>
<feComposite in2="hardAlpha" operator="out"/>
<feColorMatrix type="matrix" values="0 0 0 0 0 0 0 0 0 0 0 0 0 0 0 0 0 0 0.25 0"/>
<feBlend mode="normal" in2="BackgroundImageFix" result="effect1_dropShadow_69_1413"/>
<feBlend mode="normal" in="SourceGraphic" in2="effect1_dropShadow_69_1413" result="shape"/>
<feColorMatrix in="SourceAlpha" type="matrix" values="0 0 0 0 0 0 0 0 0 0 0 0 0 0 0 0 0 0 127 0" result="hardAlpha"/>
<feOffset/>
<feGaussianBlur stdDeviation="2"/>
<feComposite in2="hardAlpha" operator="arithmetic" k2="-1" k3="1"/>
<feColorMatrix type="matrix" values="0 0 0 0 0 0 0 0 0 0 0 0 0 0 0 0 0 0 0.25 0"/>
<feBlend mode="normal" in2="shape" result="effect2_innerShadow_69_1413"/>
</filter>
</defs>
</svg>
