<?xml version="1.0" standalone="no"?>
<!DOCTYPE svg PUBLIC "-//W3C//DTD SVG 20010904//EN"
 "http://www.w3.org/TR/2001/REC-SVG-20010904/DTD/svg10.dtd">
<svg version="1.0" xmlns="http://www.w3.org/2000/svg"
 width="1200.000000pt" height="1200.000000pt" viewBox="0 0 1200.000000 1200.000000"
 preserveAspectRatio="xMidYMid meet">

<g transform="translate(0.000000,1200.000000) scale(0.100000,-0.100000)"
fill="#000000" stroke="none">
<path d="M6610 11412 c0 -49 -40 -175 -87 -271 -37 -78 -59 -109 -127 -177
-78 -77 -92 -86 -257 -167 -95 -47 -219 -100 -274 -117 -590 -188 -634 -210
-753 -389 -140 -209 -174 -405 -113 -643 82 -318 228 -560 626 -1037 178 -213
218 -269 265 -367 47 -98 76 -199 93 -325 l13 -94 21 40 c30 59 59 155 88 290
62 287 53 471 -42 850 -102 411 -109 529 -43 727 55 164 115 263 296 483 266
326 373 502 404 663 18 90 8 247 -24 365 -23 88 -68 197 -81 197 -3 0 -5 -12
-5 -28z"/>
<path d="M6911 10925 c-6 -58 -28 -162 -58 -265 -30 -108 -44 -139 -100 -225
-36 -55 -105 -145 -153 -200 -131 -150 -215 -265 -280 -383 -143 -257 -163
-426 -105 -847 40 -287 41 -367 9 -685 l-6 -65 46 63 c26 35 107 154 180 265
73 111 178 263 233 337 276 373 393 586 463 840 21 77 23 104 23 285 -2 245
-23 361 -102 560 -54 136 -149 337 -150 320z"/>
<path d="M3795 10064 c-16 -2 -66 -9 -110 -15 -119 -15 -387 -83 -490 -124
-50 -19 -106 -48 -125 -63 l-34 -29 120 -6 c200 -9 400 -55 614 -138 219 -85
386 -197 590 -393 516 -498 523 -503 740 -591 168 -67 300 -101 300 -77 0 4
-16 24 -36 43 -20 18 -70 74 -111 124 -216 255 -359 494 -478 795 -71 181
-103 238 -176 311 -68 68 -168 120 -279 144 -73 16 -451 30 -525 19z"/>
<path d="M7830 10060 c-271 -33 -425 -155 -520 -410 -114 -308 -148 -378 -285
-593 -110 -175 -185 -275 -270 -366 -41 -42 -61 -71 -52 -71 60 0 382 129 465
187 68 46 277 237 479 437 232 228 399 345 618 434 216 88 431 138 634 149
l125 6 -34 29 c-19 15 -67 42 -108 58 -83 35 -337 102 -475 126 -109 19 -466
27 -577 14z"/>
<path d="M3256 9470 c-99 -16 -247 -60 -321 -95 -107 -52 -236 -155 -305 -243
-62 -80 -119 -177 -109 -186 3 -4 48 14 100 38 124 57 350 134 421 142 31 4
105 3 165 -1 l108 -8 -50 -14 c-158 -44 -306 -118 -453 -229 -75 -57 -134 -82
-297 -127 -70 -19 -105 -22 -275 -22 -174 0 -204 3 -278 24 -114 32 -212 98
-341 228 l-103 105 4 -158 c6 -183 20 -238 99 -395 86 -173 204 -307 392 -447
124 -93 210 -127 462 -186 171 -40 240 -48 448 -50 226 -1 278 8 397 67 l65
32 6 140 c10 208 67 451 141 600 57 112 174 219 281 254 193 63 435 66 633 6
26 -8 50 -12 52 -10 8 7 -87 112 -161 178 -201 180 -363 273 -572 328 -107 28
-138 32 -285 35 -91 1 -192 -1 -224 -6z"/>
<path d="M8345 9466 c-268 -52 -450 -146 -682 -353 -74 -66 -169 -171 -161
-178 2 -2 26 2 52 10 198 60 440 57 633 -6 107 -35 224 -142 281 -254 74 -149
131 -392 141 -600 l6 -140 65 -32 c119 -59 171 -68 397 -67 208 2 277 10 448
50 252 59 338 93 462 186 188 140 306 274 392 447 79 157 93 212 99 395 l4
158 -103 -105 c-129 -130 -227 -196 -341 -228 -74 -21 -104 -24 -278 -24 -170
0 -205 3 -275 22 -163 45 -222 70 -297 127 -147 111 -295 185 -453 229 l-50
14 108 8 c60 4 134 5 165 1 71 -8 297 -85 421 -142 52 -24 97 -42 99 -39 22
22 -133 234 -221 303 -146 115 -218 150 -398 197 -88 23 -130 28 -274 31 -116
2 -192 -1 -240 -10z"/>
<path d="M3963 8850 c-34 -11 -81 -35 -105 -53 -89 -67 -197 -241 -247 -394
-60 -188 -76 -550 -33 -777 47 -246 146 -411 276 -461 l43 -17 -4 -51 c-3 -29
-13 -111 -24 -184 -31 -212 -27 -287 26 -487 50 -194 86 -310 145 -476 39
-109 42 -123 47 -255 6 -148 -7 -225 -58 -363 -10 -29 -19 -62 -19 -74 0 -18
4 -20 41 -15 23 3 57 17 77 31 20 14 37 24 38 23 1 -1 7 -40 14 -87 6 -47 17
-107 25 -135 15 -52 80 -165 95 -165 5 0 17 26 26 58 16 53 18 55 27 32 5 -14
36 -79 68 -146 53 -111 68 -132 186 -263 70 -79 149 -173 175 -209 71 -101
141 -175 209 -224 139 -98 152 -115 217 -281 33 -84 72 -186 88 -227 36 -99
123 -189 234 -243 98 -48 191 -60 470 -60 373 0 473 27 610 162 56 55 71 78
95 141 15 41 54 143 87 227 65 166 78 183 217 281 68 49 138 123 209 224 26
36 105 130 175 209 118 131 133 152 186 263 32 67 63 132 68 146 9 23 11 21
27 -32 9 -32 21 -58 26 -58 15 0 80 113 95 165 8 28 19 88 25 135 7 47 13 86
14 87 1 1 18 -9 38 -23 20 -14 54 -28 77 -31 37 -5 41 -3 41 15 0 12 -9 45
-19 74 -51 138 -64 215 -58 363 5 132 8 146 47 255 59 166 95 282 145 476 53
200 57 275 26 487 -11 73 -21 155 -24 184 l-4 51 43 17 c90 34 171 133 227
276 90 228 98 707 16 962 -50 153 -158 327 -247 394 -24 18 -75 42 -113 54
-142 43 -384 12 -548 -71 -112 -56 -248 -150 -335 -231 l-76 -71 -55 13 c-73
16 -173 -1 -261 -45 l-64 -33 6 32 c6 35 -14 65 -45 65 -62 0 -231 -174 -231
-237 0 -38 27 -26 68 30 42 55 130 142 138 134 3 -2 -4 -29 -16 -58 -11 -30
-20 -60 -20 -67 0 -28 32 -22 90 18 100 68 164 93 252 98 66 4 81 2 113 -18
l36 -22 84 81 c168 161 368 284 535 330 85 24 234 28 322 10 47 -10 61 -20
128 -88 170 -173 236 -372 247 -746 8 -262 -21 -430 -100 -580 -35 -66 -131
-169 -169 -180 -12 -4 -37 -18 -54 -31 l-31 -23 18 -93 c26 -136 43 -339 36
-437 -7 -94 -34 -197 -157 -606 l-82 -270 6 -140 c3 -93 12 -167 26 -219 11
-44 18 -81 15 -84 -2 -3 -22 14 -43 37 -26 29 -43 40 -55 35 -17 -6 -21 -19
-38 -154 -10 -80 -35 -195 -46 -213 -3 -5 -17 15 -32 44 -14 29 -31 54 -36 56
-6 2 -17 -14 -24 -34 -8 -21 -40 -93 -71 -160 -60 -126 -107 -195 -205 -298
-63 -67 -60 -74 -28 65 8 36 17 128 20 205 l5 140 -42 65 c-23 36 -80 102
-127 148 -92 89 -242 207 -251 197 -3 -3 47 -58 111 -123 64 -65 117 -123 117
-131 0 -31 -75 -134 -123 -170 -64 -48 -177 -105 -282 -143 l-80 -28 58 5
c128 12 302 101 414 211 l72 72 29 -37 c53 -66 56 -79 57 -203 0 -102 -3 -119
-20 -138 -63 -69 -183 -101 -380 -101 -105 0 -126 -2 -110 -12 13 -8 72 -12
175 -11 125 0 169 4 230 21 41 12 76 20 78 18 5 -4 -41 -141 -64 -191 -32 -67
-60 -79 -184 -78 -84 0 -152 13 -227 41 -16 6 -16 5 -5 -10 28 -34 163 -68
312 -80 l35 -2 -90 -90 c-83 -83 -102 -95 -227 -157 -146 -73 -181 -80 -254
-54 -64 22 -332 168 -441 240 l-103 67 0 194 0 194 53 40 c113 86 115 89 142
190 13 52 28 97 33 100 67 49 193 131 199 131 4 0 16 -7 26 -14 17 -13 13 -20
-48 -106 -36 -51 -63 -95 -60 -98 7 -8 123 72 205 141 101 85 123 119 117 179
-7 74 -44 139 -97 166 -58 29 -133 29 -397 0 l-203 -22 -202 22 c-265 29 -340
29 -398 0 -53 -27 -90 -92 -97 -166 -6 -60 16 -94 117 -179 82 -69 198 -149
205 -141 3 3 -24 47 -60 98 -61 86 -65 93 -48 106 10 7 22 14 26 14 6 0 132
-82 199 -131 5 -3 20 -48 33 -100 27 -101 29 -104 143 -190 l52 -40 0 -194 0
-194 -102 -67 c-110 -72 -378 -218 -442 -240 -73 -26 -108 -19 -254 54 -125
62 -144 74 -227 157 l-90 90 35 2 c149 12 284 46 312 80 11 15 11 16 -5 10
-75 -28 -143 -41 -227 -41 -124 -1 -152 11 -184 78 -23 50 -69 187 -64 191 2
2 37 -6 78 -18 61 -17 105 -21 230 -21 103 -1 162 3 175 11 16 10 -5 12 -110
12 -197 0 -317 32 -380 101 -17 19 -20 36 -20 138 1 124 4 137 57 203 l29 37
72 -72 c112 -110 286 -199 414 -211 l58 -5 -80 28 c-105 38 -218 95 -282 143
-48 36 -123 139 -123 170 0 8 53 66 117 131 64 65 114 120 111 123 -9 10 -159
-108 -251 -197 -47 -46 -104 -112 -127 -148 l-42 -65 5 -140 c3 -77 12 -169
20 -205 32 -139 35 -132 -28 -65 -98 103 -145 172 -205 298 -31 67 -63 139
-71 160 -7 20 -18 36 -24 34 -5 -2 -22 -27 -36 -56 -15 -29 -29 -49 -32 -44
-11 18 -36 133 -46 213 -17 135 -21 148 -38 154 -12 5 -29 -6 -55 -35 -21 -23
-41 -40 -43 -37 -3 3 4 40 15 84 14 52 23 126 26 219 l6 140 -82 270 c-123
409 -150 512 -157 606 -7 98 10 301 36 437 l18 93 -31 23 c-17 13 -42 27 -54
31 -38 11 -134 114 -169 180 -79 150 -108 318 -100 580 11 374 77 573 247 746
67 68 81 78 128 88 88 18 237 14 322 -10 167 -46 367 -169 535 -330 l84 -81
36 22 c32 20 47 22 113 18 88 -5 152 -30 252 -98 58 -40 90 -46 90 -18 0 7 -9
37 -20 67 -12 29 -19 56 -16 58 8 8 96 -79 138 -134 41 -56 68 -68 68 -30 0
63 -169 237 -231 237 -31 0 -51 -30 -45 -65 l6 -32 -64 33 c-88 44 -188 61
-261 45 l-55 -13 -76 71 c-141 131 -343 251 -490 291 -119 32 -318 37 -401 10z
m2123 -4601 c49 -22 202 -97 340 -166 l251 -125 52 15 c28 8 51 12 51 8 0 -17
-93 -262 -125 -328 -63 -135 -169 -218 -317 -250 -104 -22 -572 -22 -676 0
-148 32 -254 115 -317 250 -32 66 -125 311 -125 328 0 4 23 0 51 -8 l51 -15
282 139 c154 77 306 151 336 166 30 14 55 26 56 26 1 1 41 -17 90 -40z"/>
<path d="M4082 8599 c40 -48 42 -52 24 -64 -81 -60 -126 -123 -168 -238 -74
-205 -74 -443 1 -660 43 -123 131 -257 163 -245 8 3 29 46 47 95 38 100 118
260 176 348 21 33 75 97 120 142 81 81 81 81 69 115 -37 109 -153 287 -256
394 -71 73 -187 164 -210 164 -5 0 10 -23 34 -51z"/>
<path d="M7882 8609 c-145 -97 -338 -349 -396 -517 -12 -34 -12 -34 69 -115
45 -45 99 -109 120 -142 58 -88 138 -248 176 -348 18 -49 39 -92 47 -95 32
-12 120 122 163 245 75 217 75 455 1 660 -42 115 -87 178 -168 238 -18 12 -16
16 24 64 24 28 39 51 34 51 -5 0 -36 -19 -70 -41z"/>
<path d="M1683 7875 c-106 -23 -209 -80 -330 -183 -91 -77 -235 -272 -201
-272 7 0 48 7 91 15 113 21 306 29 427 17 93 -10 295 -53 327 -71 6 -3 -46 -4
-117 -3 -151 5 -240 -14 -373 -76 -109 -51 -205 -141 -298 -279 -130 -195
-198 -363 -206 -513 l-6 -95 43 50 c56 65 160 156 232 205 36 24 106 54 190
81 l133 44 195 -1 c129 -1 255 -9 370 -23 198 -24 284 -26 467 -10 226 19 456
77 583 147 115 63 297 190 366 254 l31 29 -29 31 c-16 18 -41 54 -55 82 -41
80 -101 277 -114 372 -7 49 -13 90 -14 92 -1 1 -31 -11 -66 -27 -35 -17 -109
-42 -164 -57 -95 -25 -109 -26 -275 -21 -268 7 -462 47 -795 162 -174 60 -197
65 -270 64 -44 0 -108 -7 -142 -14z"/>
<path d="M9905 7825 c-330 -115 -526 -155 -795 -162 -166 -5 -180 -4 -275 21
-55 15 -129 40 -164 57 -35 16 -65 28 -66 27 -1 -2 -7 -43 -14 -92 -13 -95
-73 -292 -114 -372 -14 -28 -39 -64 -55 -82 l-29 -31 31 -29 c69 -64 251 -191
366 -254 127 -70 357 -128 583 -147 183 -16 269 -14 467 10 115 14 241 22 370
23 l195 1 133 -44 c84 -27 154 -57 190 -81 72 -49 176 -140 232 -205 l43 -50
-6 95 c-8 150 -76 318 -206 513 -93 138 -189 228 -298 279 -133 62 -222 81
-373 76 -71 -1 -123 0 -117 3 32 18 234 61 327 71 121 12 314 4 427 -17 111
-21 109 -22 77 33 -69 120 -176 228 -318 321 -102 67 -183 92 -316 98 l-105 4
-190 -66z"/>
<path d="M5305 7323 c6 -5 36 -26 68 -47 107 -72 147 -136 192 -310 33 -124
43 -121 44 11 2 177 -27 227 -173 298 -90 43 -151 66 -131 48z"/>
<path d="M6647 7315 c-73 -27 -178 -88 -206 -121 -36 -40 -51 -107 -50 -217 1
-132 11 -135 44 -11 45 174 85 238 192 310 91 60 93 66 20 39z"/>
<path d="M3615 6997 c-108 -93 -314 -229 -416 -273 -330 -142 -503 -171 -934
-160 -297 8 -333 2 -442 -66 -204 -128 -405 -372 -493 -600 -59 -152 -101
-340 -107 -478 -6 -134 4 -340 17 -340 4 0 20 19 36 43 107 159 231 254 398
306 84 26 280 51 401 51 201 0 353 33 563 122 151 64 240 116 362 215 77 62
224 207 300 297 166 195 336 553 380 799 12 65 20 126 18 136 -2 14 -20 4 -83
-52z"/>
<path d="M8300 7047 c0 -13 9 -75 20 -138 44 -242 215 -601 380 -795 76 -90
223 -235 300 -297 122 -99 211 -151 362 -215 210 -89 362 -122 563 -122 121 0
317 -25 401 -51 167 -52 291 -147 398 -306 16 -24 32 -43 36 -43 13 0 23 206
17 340 -6 138 -48 326 -107 478 -88 228 -289 472 -493 600 -109 68 -145 74
-442 66 -431 -11 -604 18 -934 160 -103 45 -308 179 -418 275 -74 64 -83 69
-83 48z"/>
<path d="M4555 6831 c-8 -14 24 -159 46 -206 31 -65 54 -80 194 -125 111 -35
451 -130 565 -158 l35 -8 29 -125 c30 -128 32 -136 41 -127 17 17 -93 675
-115 688 -14 9 -42 12 -435 45 -324 28 -351 29 -360 16z"/>
<path d="M7075 6815 c-137 -12 -286 -25 -331 -29 -44 -4 -87 -11 -94 -16 -22
-13 -132 -671 -115 -688 9 -9 11 -1 41 127 l29 125 35 8 c114 28 454 123 565
158 140 45 163 60 194 125 22 47 54 192 46 206 -9 13 -83 10 -370 -16z"/>
<path d="M3593 6281 c-128 -260 -211 -380 -378 -546 -162 -162 -321 -273 -550
-386 -115 -56 -169 -76 -300 -109 -241 -62 -357 -103 -437 -157 -118 -79 -168
-148 -223 -308 -25 -74 -27 -88 -22 -185 10 -189 75 -342 208 -490 45 -49 85
-90 89 -90 3 0 -2 33 -12 73 -11 39 -20 111 -21 158 -1 79 2 91 35 160 43 90
82 135 199 233 152 128 345 247 473 293 95 33 295 167 435 292 181 160 376
444 470 684 66 166 159 530 149 585 -2 11 -48 -72 -115 -207z"/>
<path d="M8294 6458 c10 -92 61 -305 107 -444 97 -294 299 -607 510 -795 140
-125 340 -259 435 -292 128 -46 321 -165 473 -293 117 -98 156 -143 199 -233
33 -69 36 -81 35 -160 -1 -47 -10 -119 -21 -158 -10 -40 -15 -73 -12 -73 4 0
44 41 89 90 133 148 198 301 208 490 5 97 3 111 -22 185 -55 160 -105 229
-223 308 -80 54 -196 95 -437 157 -131 33 -185 53 -300 109 -229 113 -388 224
-550 386 -166 165 -250 286 -382 550 -111 223 -114 228 -109 173z"/>
<path d="M3801 5970 c-28 -194 -51 -284 -111 -433 -38 -95 -75 -171 -102 -205
-102 -136 -306 -311 -603 -517 -344 -240 -476 -354 -566 -492 -91 -140 -120
-269 -100 -449 22 -193 124 -448 241 -605 85 -113 237 -250 394 -354 79 -52
146 -95 149 -95 2 0 -12 35 -33 78 -110 225 -110 408 -1 666 64 150 104 211
260 405 184 227 271 355 335 493 56 120 160 435 186 563 48 235 51 685 6 875
-38 165 -41 168 -55 70z"/>
<path d="M8172 6012 c-57 -188 -72 -391 -53 -702 14 -227 34 -332 113 -570
108 -328 173 -443 439 -771 156 -194 196 -255 260 -405 109 -258 109 -441 -1
-666 -21 -43 -35 -78 -33 -78 3 0 70 43 149 95 157 104 309 241 394 354 117
157 219 412 241 605 20 180 -9 309 -100 449 -90 138 -222 252 -566 492 -297
206 -501 381 -603 517 -27 34 -64 110 -103 207 -60 150 -71 194 -116 466 l-8
50 -13 -43z"/>
<path d="M4016 4907 c-35 -160 -97 -340 -161 -467 -60 -118 -104 -192 -298
-505 -45 -71 -104 -175 -131 -229 -77 -151 -77 -149 66 -436 106 -211 168
-362 168 -404 0 -8 4 -17 9 -20 11 -7 46 182 60 319 6 55 19 127 31 159 34
101 125 249 210 346 l31 35 -6 -60 c-4 -33 -31 -132 -62 -220 -85 -246 -81
-208 -35 -385 91 -346 102 -406 102 -595 0 -119 -10 -227 -27 -293 l-6 -26 39
24 c68 40 185 132 254 200 162 156 318 478 380 781 40 194 35 444 -16 741 -41
235 -199 577 -388 835 -33 47 -91 128 -129 180 -37 53 -69 98 -70 100 -2 1
-12 -34 -21 -80z"/>
<path d="M7896 4893 c-37 -54 -94 -134 -127 -178 -186 -251 -352 -607 -393
-843 -51 -297 -56 -547 -16 -741 62 -303 218 -625 380 -781 69 -68 186 -160
254 -200 l39 -24 -6 26 c-17 66 -27 174 -27 293 0 189 11 249 102 595 46 177
50 139 -35 385 -31 88 -58 187 -62 220 l-6 60 31 -35 c85 -97 176 -245 210
-346 12 -32 25 -104 31 -159 14 -137 49 -326 60 -319 5 3 9 12 9 20 0 42 62
193 168 404 143 287 143 285 66 436 -27 54 -86 158 -131 229 -331 534 -368
610 -447 928 l-32 127 -68 -97z"/>
<path d="M4733 4135 c87 -283 102 -382 101 -670 -1 -256 -19 -403 -74 -611
-74 -277 -204 -585 -324 -763 -31 -46 -54 -86 -52 -89 7 -6 166 81 241 131
196 131 444 481 534 752 84 252 51 691 -66 882 -85 139 -195 257 -347 373 -18
14 -19 13 -13 -5z"/>
<path d="M7169 4072 c-96 -80 -194 -194 -262 -305 -117 -191 -150 -630 -66
-882 90 -271 338 -621 534 -752 75 -50 234 -137 241 -131 2 3 -21 43 -52 89
-120 178 -250 486 -324 763 -105 395 -103 879 6 1212 13 42 23 78 21 80 -2 2
-46 -31 -98 -74z"/>
<path d="M5354 3253 c-4 -20 -4 -114 -1 -208 9 -256 46 -367 202 -620 68 -111
97 -167 109 -216 17 -71 20 -168 6 -239 -4 -25 -7 -46 -5 -48 8 -9 88 76 129
136 102 149 133 273 118 467 -6 72 -9 131 -7 133 1 1 23 -56 49 -129 30 -87
46 -147 46 -179 0 -57 -40 -190 -81 -272 -47 -93 -59 -138 -66 -243 -4 -77 -2
-115 11 -165 16 -62 67 -165 72 -145 20 81 51 163 77 202 17 26 104 122 192
213 252 259 373 432 414 595 30 120 51 281 50 386 0 109 -22 356 -33 366 -3 4
-44 -5 -89 -20 -118 -39 -196 -55 -332 -68 -228 -22 -529 4 -750 66 -49 13
-93 25 -97 25 -4 0 -10 -17 -14 -37z"/>
</g>
</svg>
